HIERARCHY
ROOT hip
{
  OFFSET -0.380877 103.83 -0.41898
  CHANNELS 6 Xposition Yposition Zposition Zrotation Xrotation Yrotation
  JOINT abdomen
  {
    OFFSET 0 -1.186 -1.50178
    CHANNELS 6 Xposition Yposition Zposition Zrotation Xrotation Yrotation
    JOINT abdomen2
    {
      OFFSET 0 9.964 0.21338
      CHANNELS 6 Xposition Yposition Zposition Zrotation Xrotation Yrotation
      JOINT chest
      {
        OFFSET 0 13.134 -3.25729
        CHANNELS 6 Xposition Yposition Zposition Zrotation Xrotation Yrotation
        JOINT neck
        {
          OFFSET 0 21.686 -1.69049
          CHANNELS 6 Xposition Yposition Zposition Zrotation Xrotation Yrotation
          JOINT head
          {
            OFFSET 0 11.838 -0.12368
            CHANNELS 6 Xposition Yposition Zposition Zrotation Xrotation Yrotation
            End Site
            {
              OFFSET 0 6.717 2.38717
            }
          }
        }
        JOINT lCollar
        {
          OFFSET 1.70688 20.075 5.0056
          CHANNELS 6 Xposition Yposition Zposition Zrotation Xrotation Yrotation
          JOINT lShldr
          {
            OFFSET 13.6458 -0.047012 -4.84902
            CHANNELS 6 Xposition Yposition Zposition Zrotation Xrotation Yrotation
            JOINT lForeArm
            {
              OFFSET 28.3255 -0.975903 2.28883
              CHANNELS 6 Xposition Yposition Zposition Zrotation Xrotation Yrotation
              JOINT lHand
              {
                OFFSET 22.1583 -0.530035 10.8316
                CHANNELS 6 Xposition Yposition Zposition Zrotation Xrotation Yrotation
                JOINT lThumb1
                {
                  OFFSET 0.785995 0.111999 2.58168
                  CHANNELS 6 Xposition Yposition Zposition Zrotation Xrotation Yrotation
                  JOINT lThumb2
                  {
                    OFFSET 0.3601 -0.878005 4.2331
                    CHANNELS 6 Xposition Yposition Zposition Zrotation Xrotation Yrotation
                    End Site
                    {
                      OFFSET 1.81271 -1.21601 2.2227
                    }
                  }
                }
                JOINT lCarpal1
                {
                  OFFSET 0.9571 1.114 1.76948
                  CHANNELS 6 Xposition Yposition Zposition Zrotation Xrotation Yrotation
                  JOINT lIndex1
                  {
                    OFFSET 4.1246 0.487 4.1451
                    CHANNELS 6 Xposition Yposition Zposition Zrotation Xrotation Yrotation
                    JOINT lIndex2
                    {
                      OFFSET 3.40521 -1.45401 2.7682
                      CHANNELS 6 Xposition Yposition Zposition Zrotation Xrotation Yrotation
                      End Site
                      {
                        OFFSET 1.4531 -1.795 1.2713
                      }
                    }
                  }
                  JOINT lMid1
                  {
                    OFFSET 5.6954 0.209991 2.1184
                    CHANNELS 6 Xposition Yposition Zposition Zrotation Xrotation Yrotation
                    JOINT lMid2
                    {
                      OFFSET 3.9766 -1.53999 2.3863
                      CHANNELS 6 Xposition Yposition Zposition Zrotation Xrotation Yrotation
                      End Site
                      {
                        OFFSET 1.4042 -1.926 1.125
                      }
                    }
                  }
                }
                JOINT lCarpal2
                {
                  OFFSET 2.09559 0.65999 -0.38939
                  CHANNELS 6 Xposition Yposition Zposition Zrotation Xrotation Yrotation
                  JOINT lRing1
                  {
                    OFFSET 5.0395 -0.089997 2.49707
                    CHANNELS 6 Xposition Yposition Zposition Zrotation Xrotation Yrotation
                    JOINT lRing2
                    {
                      OFFSET 3.7921 -1.552 1.4806
                      CHANNELS 6 Xposition Yposition Zposition Zrotation Xrotation Yrotation
                      End Site
                      {
                        OFFSET 1.4655 -1.808 0.9609
                      }
                    }
                  }
                  JOINT lPinky1
                  {
                    OFFSET 4.9141 -1.269 0.35915
                    CHANNELS 6 Xposition Yposition Zposition Zrotation Xrotation Yrotation
                    JOINT lPinky2
                    {
                      OFFSET 3.1477 -1.685 0.84623
                      CHANNELS 6 Xposition Yposition Zposition Zrotation Xrotation Yrotation
                      End Site
                      {
                        OFFSET 0.805505 -1.58499 0.79549
                      }
                    }
                  }
                }
              }
            }
          }
        }
        JOINT rCollar
        {
          OFFSET -1.70688 20.075 5.0056
          CHANNELS 6 Xposition Yposition Zposition Zrotation Xrotation Yrotation
          JOINT rShldr
          {
            OFFSET -13.6458 -0.047012 -4.84902
            CHANNELS 6 Xposition Yposition Zposition Zrotation Xrotation Yrotation
            JOINT rForeArm
            {
              OFFSET -28.3255 -0.975903 2.28883
              CHANNELS 6 Xposition Yposition Zposition Zrotation Xrotation Yrotation
              JOINT rHand
              {
                OFFSET -22.1583 -0.530036 10.8316
                CHANNELS 6 Xposition Yposition Zposition Zrotation Xrotation Yrotation
                JOINT rThumb1
                {
                  OFFSET -0.785995 0.111999 2.58168
                  CHANNELS 6 Xposition Yposition Zposition Zrotation Xrotation Yrotation
                  JOINT rThumb2
                  {
                    OFFSET -0.3601 -0.878005 4.2331
                    CHANNELS 6 Xposition Yposition Zposition Zrotation Xrotation Yrotation
                    End Site
                    {
                      OFFSET -1.81271 -1.21601 2.2227
                    }
                  }
                }
                JOINT rCarpal1
                {
                  OFFSET -0.9571 1.114 1.76948
                  CHANNELS 6 Xposition Yposition Zposition Zrotation Xrotation Yrotation
                  JOINT rIndex1
                  {
                    OFFSET -4.1246 0.487 4.1451
                    CHANNELS 6 Xposition Yposition Zposition Zrotation Xrotation Yrotation
                    JOINT rIndex2
                    {
                      OFFSET -3.40521 -1.45401 2.7682
                      CHANNELS 6 Xposition Yposition Zposition Zrotation Xrotation Yrotation
                      End Site
                      {
                        OFFSET -1.4531 -1.795 1.2713
                      }
                    }
                  }
                  JOINT rMid1
                  {
                    OFFSET -5.6954 0.209991 2.1184
                    CHANNELS 6 Xposition Yposition Zposition Zrotation Xrotation Yrotation
                    JOINT rMid2
                    {
                      OFFSET -3.9766 -1.53999 2.3863
                      CHANNELS 6 Xposition Yposition Zposition Zrotation Xrotation Yrotation
                      End Site
                      {
                        OFFSET -1.4042 -1.926 1.125
                      }
                    }
                  }
                }
                JOINT rCarpal2
                {
                  OFFSET -2.09559 0.65999 -0.38939
                  CHANNELS 6 Xposition Yposition Zposition Zrotation Xrotation Yrotation
                  JOINT rRing1
                  {
                    OFFSET -5.0395 -0.089997 2.49707
                    CHANNELS 6 Xposition Yposition Zposition Zrotation Xrotation Yrotation
                    JOINT rRing2
                    {
                      OFFSET -3.7921 -1.552 1.4806
                      CHANNELS 6 Xposition Yposition Zposition Zrotation Xrotation Yrotation
                      End Site
                      {
                        OFFSET -1.4655 -1.808 0.9609
                      }
                    }
                  }
                  JOINT rPinky1
                  {
                    OFFSET -4.9141 -1.269 0.35915
                    CHANNELS 6 Xposition Yposition Zposition Zrotation Xrotation Yrotation
                    JOINT rPinky2
                    {
                      OFFSET -3.1477 -1.685 0.84623
                      CHANNELS 6 Xposition Yposition Zposition Zrotation Xrotation Yrotation
                      End Site
                      {
                        OFFSET -0.805505 -1.58499 0.79549
                      }
                    }
                  }
                }
              }
            }
          }
        }
      }
    }
  }
  JOINT lThigh
  {
    OFFSET 8.367 -8.2066 0.59823
    CHANNELS 6 Xposition Yposition Zposition Zrotation Xrotation Yrotation
    JOINT lShin
    {
      OFFSET 2.19232 -43.463 -0.493181
      CHANNELS 6 Xposition Yposition Zposition Zrotation Xrotation Yrotation
      JOINT lFoot
      {
        OFFSET 0.733257 -45.8593 -2.64513
        CHANNELS 6 Xposition Yposition Zposition Zrotation Xrotation Yrotation
        End Site
        {
          OFFSET 2.6618 -4.26993 12.3931
        }
      }
    }
  }
  JOINT rThigh
  {
    OFFSET -8.367 -8.2066 0.59823
    CHANNELS 6 Xposition Yposition Zposition Zrotation Xrotation Yrotation
    JOINT rShin
    {
      OFFSET -2.19233 -43.463 -0.493108
      CHANNELS 6 Xposition Yposition Zposition Zrotation Xrotation Yrotation
      JOINT rFoot
      {
        OFFSET -0.733256 -45.8593 -2.64514
        CHANNELS 6 Xposition Yposition Zposition Zrotation Xrotation Yrotation
        End Site
        {
          OFFSET -2.6618 -4.26993 12.3931
        }
      }
    }
  }
}
MOTION
Frames:	4
Frame Time:	0.0333333
-0.252212 103.795 -0.100972 0.807139 -1.53439 5.80093 1.11022e-016 -1.186 -1.50178 0.182233 0.163245 0.0389587 0 9.964 0.21338 0.364283 0.326771 0.0770715 0 13.134 -3.25729 0.364179 0.326988 0.0766462 4.44089e-016 21.686 -1.69049 1.36607 16.6457 -0.770595 0 11.838 -0.12368 0.435413 9.28565 -0.435154 1.70688 20.075 5.0056 -2.47849 1.04883 -0.668284 13.6458 -0.047012 -4.84902 -80.6395 -0.655364 4.24568 28.3255 -0.975903 2.28883 -1.03754 -5.30673 21.1761 22.1583 -0.530035 10.8316 0.271749 -0.0851625 0.641816 0.785995 0.111999 2.58168 -7.95139e-016 -3.18055e-015 3.18055e-015 0.3601 -0.878005 4.2331 -2.38542e-015 -3.18055e-015 3.18055e-015 0.9571 1.114 1.76948 -7.95139e-016 -3.18055e-015 3.18055e-015 4.1246 0.487 4.1451 -2.38542e-015 -3.18055e-015 3.18055e-015 3.40521 -1.45401 2.7682 -7.95139e-016 -1.59028e-015 3.18055e-015 5.6954 0.209991 2.1184 -2.38542e-015 -3.18055e-015 3.18055e-015 3.9766 -1.53999 2.3863 -7.95139e-016 -1.59028e-015 3.18055e-015 2.09559 0.65999 -0.38939 -7.95139e-016 -3.18055e-015 3.18055e-015 5.0395 -0.089997 2.49707 -2.38542e-015 -3.18055e-015 3.18055e-015 3.7921 -1.552 1.4806 -7.95139e-016 -1.59028e-015 3.18055e-015 4.9141 -1.269 0.35915 -2.38542e-015 -3.18055e-015 3.18055e-015 3.1477 -1.685 0.84623 -7.95139e-016 -1.59028e-015 3.18055e-015 -1.70688 20.075 5.0056 0.849637 0.548167 1.39927 -13.6458 -0.047012 -4.84902 75.8981 1.86908 -7.15319 -28.3255 -0.975903 2.28883 1.04641 -7.18982 -19.2777 -22.1583 -0.530036 10.8316 2.02598 1.67784 -2.62971 -0.785995 0.111999 2.58168 9.93923e-016 1.19271e-015 -3.18055e-015 -0.3601 -0.878005 4.2331 -2.98177e-015 7.95139e-016 -3.18055e-015 -0.9571 1.114 1.76948 9.93923e-016 1.19271e-015 -3.18055e-015 -4.1246 0.487 4.1451 -2.98177e-015 7.95139e-016 -3.18055e-015 -3.40521 -1.45401 2.7682 -1.59028e-015 0 -0 -5.6954 0.209991 2.1184 -2.98177e-015 7.95139e-016 -3.18055e-015 -3.9766 -1.53999 2.3863 -1.59028e-015 0 -0 -2.09559 0.65999 -0.38939 9.93923e-016 1.19271e-015 -3.18055e-015 -5.0395 -0.089997 2.49707 -2.98177e-015 7.95139e-016 -3.18055e-015 -3.7921 -1.552 1.4806 -1.59028e-015 0 -0 -4.9141 -1.269 0.35915 -2.98177e-015 7.95139e-016 -3.18055e-015 -3.1477 -1.685 0.84623 -1.59028e-015 0 -0 8.367 -8.2066 0.59823 0.179512 1.33381 0.788874 2.19232 -43.463 -0.493181 -0.35078 0.418518 -0.858085 0.733257 -45.8593 -2.64513 -0.425923 -1.4337 0.0656653 -8.367 -8.2066 0.59823 2.63596 3.42635 -2.20533 -2.19233 -43.463 -0.493108 -0.102574 0.552448 -3.48937 -0.733256 -45.8593 -2.64514 -1.02932 -2.21556 0.237697 
-0.284217 103.777 -0.13733 0.62731 -1.67833 5.93596 -1.11022e-016 -1.186 -1.50178 0.196431 0.145196 0.0240471 1.11022e-016 9.964 0.21338 0.392756 0.29062 0.0473229 -2.22045e-016 13.134 -3.25729 0.392658 0.290798 0.046945 0 21.686 -1.69049 1.81308 19.8925 -1.01091 0 11.838 -0.12368 0.614764 10.5003 -0.406223 1.70688 20.075 5.0056 -2.2639 1.20849 -0.634735 13.6458 -0.047012 -4.84902 -80.7133 -0.34693 4.13451 28.3255 -0.975903 2.28883 -1.26935 -5.50277 21.1747 22.1583 -0.530035 10.8316 0.353714 -0.165101 0.563098 0.785995 0.111999 2.58168 7.95139e-016 3.18055e-015 -0 0.3601 -0.878005 4.2331 -1.76556e-031 3.18055e-015 3.18055e-015 0.9571 1.114 1.76948 7.95139e-016 3.18055e-015 -0 4.1246 0.487 4.1451 -1.76556e-031 3.18055e-015 3.18055e-015 3.40521 -1.45401 2.7682 3.53113e-031 6.36111e-015 -3.18055e-015 5.6954 0.209991 2.1184 -1.76556e-031 3.18055e-015 3.18055e-015 3.9766 -1.53999 2.3863 3.53113e-031 6.36111e-015 -3.18055e-015 2.09559 0.65999 -0.38939 7.95139e-016 3.18055e-015 -0 5.0395 -0.089997 2.49707 -1.76556e-031 3.18055e-015 3.18055e-015 3.7921 -1.552 1.4806 3.53113e-031 6.36111e-015 -3.18055e-015 4.9141 -1.269 0.35915 -1.76556e-031 3.18055e-015 3.18055e-015 3.1477 -1.685 0.84623 3.53113e-031 6.36111e-015 -3.18055e-015 -1.70688 20.075 5.0056 0.805948 0.722815 1.25287 -13.6458 -0.047012 -4.84902 75.933 1.80102 -6.9293 -28.3255 -0.975903 2.28883 1.07894 -6.8898 -19.4715 -22.1583 -0.530036 10.8316 2.14381 1.7269 -2.06581 -0.785995 0.111999 2.58168 -7.95139e-016 1.19271e-015 -0 -0.3601 -0.878005 4.2331 -3.37934e-015 3.97569e-016 -0 -0.9571 1.114 1.76948 -7.95139e-016 1.19271e-015 -0 -4.1246 0.487 4.1451 -3.37934e-015 3.97569e-016 -0 -3.40521 -1.45401 2.7682 5.96354e-016 -3.97569e-016 -6.36111e-015 -5.6954 0.209991 2.1184 -3.37934e-015 3.97569e-016 -0 -3.9766 -1.53999 2.3863 5.96354e-016 -3.97569e-016 -6.36111e-015 -2.09559 0.65999 -0.38939 -7.95139e-016 1.19271e-015 -0 -5.0395 -0.089997 2.49707 -3.37934e-015 3.97569e-016 -0 -3.7921 -1.552 1.4806 5.96354e-016 -3.97569e-016 -6.36111e-015 -4.9141 -1.269 0.35915 -3.37934e-015 3.97569e-016 -0 -3.1477 -1.685 0.84623 5.96354e-016 -3.97569e-016 -6.36111e-015 8.367 -8.2066 0.59823 0.418416 1.42601 0.955451 2.19232 -43.463 -0.493181 -0.356406 0.415776 -1.15926 0.733257 -45.8593 -2.64513 -0.459517 -1.39591 0.0692462 -8.367 -8.2066 0.59823 2.8988 3.82636 -2.11098 -2.19233 -43.463 -0.493108 -0.132512 0.134949 -3.7305 -0.733256 -45.8593 -2.64514 -1.0565 -2.08264 0.227664 
-0.28312 103.801 -0.199582 0.888538 -1.56013 5.91487 0 -1.186 -1.50178 0.10862 0.0819227 0.0420938 -2.22045e-016 9.964 0.21338 0.217141 0.164059 0.0838728 -2.22045e-016 13.134 -3.25729 0.217084 0.164241 0.083656 -4.44089e-016 21.686 -1.69049 2.45021 23.654 -1.22925 8.88179e-016 11.838 -0.12368 0.571598 11.5975 -0.454121 1.70688 20.075 5.0056 -2.34577 1.31653 -0.714436 13.6458 -0.047012 -4.84902 -80.3897 -0.402723 4.04836 28.3255 -0.975903 2.28883 -1.21417 -5.36595 21.1755 22.1583 -0.530035 10.8316 0.316568 -0.178135 0.35129 0.785995 0.111999 2.58168 7.95139e-016 -1.59028e-015 3.18055e-015 0.3601 -0.878005 4.2331 8.82781e-032 -1.59028e-015 3.18055e-015 0.9571 1.114 1.76948 7.95139e-016 -1.59028e-015 3.18055e-015 4.1246 0.487 4.1451 8.82781e-032 -1.59028e-015 3.18055e-015 3.40521 -1.45401 2.7682 7.95139e-016 -1.59028e-015 -3.18055e-015 5.6954 0.209991 2.1184 8.82781e-032 -1.59028e-015 3.18055e-015 3.9766 -1.53999 2.3863 7.95139e-016 -1.59028e-015 -3.18055e-015 2.09559 0.65999 -0.38939 7.95139e-016 -1.59028e-015 3.18055e-015 5.0395 -0.089997 2.49707 8.82781e-032 -1.59028e-015 3.18055e-015 3.7921 -1.552 1.4806 7.95139e-016 -1.59028e-015 -3.18055e-015 4.9141 -1.269 0.35915 8.82781e-032 -1.59028e-015 3.18055e-015 3.1477 -1.685 0.84623 7.95139e-016 -1.59028e-015 -3.18055e-015 -1.70688 20.075 5.0056 0.939919 0.829618 1.29469 -13.6458 -0.047012 -4.84902 75.9994 1.96701 -6.97742 -28.3255 -0.975903 2.28883 1.14697 -7.46159 -19.3353 -22.1583 -0.530036 10.8316 2.22719 1.80558 -2.37975 -0.785995 0.111999 2.58168 3.97569e-016 7.95139e-016 -0 -0.3601 -0.878005 4.2331 -1.19271e-015 1.59028e-015 -0 -0.9571 1.114 1.76948 3.97569e-016 7.95139e-016 -0 -4.1246 0.487 4.1451 -1.19271e-015 1.59028e-015 -0 -3.40521 -1.45401 2.7682 -1.19271e-015 -3.97569e-016 -0 -5.6954 0.209991 2.1184 -1.19271e-015 1.59028e-015 -0 -3.9766 -1.53999 2.3863 -1.19271e-015 -3.97569e-016 -0 -2.09559 0.65999 -0.38939 3.97569e-016 7.95139e-016 -0 -5.0395 -0.089997 2.49707 -1.19271e-015 1.59028e-015 -0 -3.7921 -1.552 1.4806 -1.19271e-015 -3.97569e-016 -0 -4.9141 -1.269 0.35915 -1.19271e-015 1.59028e-015 -0 -3.1477 -1.685 0.84623 -1.19271e-015 -3.97569e-016 -0 8.367 -8.2066 0.59823 0.106465 1.273 0.714651 2.19232 -43.463 -0.493181 -0.346051 0.4563 -0.90853 0.733257 -45.8593 -2.64513 -0.43196 -1.37387 0.0824933 -8.367 -8.2066 0.59823 2.54829 3.59996 -2.29772 -2.19233 -43.463 -0.493108 -0.0561185 0.44532 -3.51624 -0.733256 -45.8593 -2.64514 -1.05212 -2.25244 0.234707 
-0.313975 103.784 -0.219116 0.656599 -1.74709 6.06931 0 -1.186 -1.50178 0.147157 0.0676492 0.0444572 0 9.964 0.21338 0.294236 0.135574 0.0886219 2.22045e-016 13.134 -3.25729 0.294195 0.135791 0.0884619 0 21.686 -1.69049 2.86651 27.5926 -1.55545 -8.88179e-016 11.838 -0.12368 0.769561 12.7205 -0.590028 1.70688 20.075 5.0056 -2.27894 1.31053 -0.883646 13.6458 -0.047012 -4.84902 -80.4485 -0.413494 4.42713 28.3255 -0.975903 2.28883 -1.24818 -5.38355 21.1754 22.1583 -0.530035 10.8316 0.168554 0.0108416 0.71794 0.785995 0.111999 2.58168 1.59028e-015 0 -0 0.3601 -0.878005 4.2331 2.38542e-015 0 3.18055e-015 0.9571 1.114 1.76948 1.59028e-015 0 -0 4.1246 0.487 4.1451 2.38542e-015 0 3.18055e-015 3.40521 -1.45401 2.7682 1.59028e-015 -3.18055e-015 -0 5.6954 0.209991 2.1184 2.38542e-015 0 3.18055e-015 3.9766 -1.53999 2.3863 1.59028e-015 -3.18055e-015 -0 2.09559 0.65999 -0.38939 1.59028e-015 0 -0 5.0395 -0.089997 2.49707 2.38542e-015 0 3.18055e-015 3.7921 -1.552 1.4806 1.59028e-015 -3.18055e-015 -0 4.9141 -1.269 0.35915 2.38542e-015 0 3.18055e-015 3.1477 -1.685 0.84623 1.59028e-015 -3.18055e-015 -0 -1.70688 20.075 5.0056 0.633133 0.867665 1.25502 -13.6458 -0.047012 -4.84902 76.351 0.922749 -7.03222 -28.3255 -0.975903 2.28883 0.85933 -6.06427 -19.5557 -22.1583 -0.530036 10.8316 2.13986 1.70402 -1.74007 -0.785995 0.111999 2.58168 1.98785e-015 -1.19271e-015 6.36111e-015 -0.3601 -0.878005 4.2331 -1.78906e-015 0 -0 -0.9571 1.114 1.76948 1.98785e-015 -1.19271e-015 6.36111e-015 -4.1246 0.487 4.1451 -1.78906e-015 0 -0 -3.40521 -1.45401 2.7682 3.97569e-016 -7.95139e-016 -0 -5.6954 0.209991 2.1184 -1.78906e-015 0 -0 -3.9766 -1.53999 2.3863 3.97569e-016 -7.95139e-016 -0 -2.09559 0.65999 -0.38939 1.98785e-015 -1.19271e-015 6.36111e-015 -5.0395 -0.089997 2.49707 -1.78906e-015 0 -0 -3.7921 -1.552 1.4806 3.97569e-016 -7.95139e-016 -0 -4.9141 -1.269 0.35915 -1.78906e-015 0 -0 -3.1477 -1.685 0.84623 3.97569e-016 -7.95139e-016 -0 8.367 -8.2066 0.59823 0.470219 1.47022 1.03704 2.19232 -43.463 -0.493181 -0.470551 0.340082 -1.37427 0.733257 -45.8593 -2.64513 -0.415619 -1.28737 0.0710075 -8.367 -8.2066 0.59823 2.93078 3.9006 -2.10124 -2.19233 -43.463 -0.493108 -0.194815 0.0528086 -3.87067 -0.733256 -45.8593 -2.64514 -1.04331 -2.0077 0.22206 
